<svg width="188" height="231" viewBox="0 0 188 231" fill="none" xmlns="http://www.w3.org/2000/svg">
<path d="M187.062 81.5193H134.765C118.906 81.5193 106.004 68.6184 106.004 52.7585L106.002 0.468501C104.443 0.279801 102.896 0 101.311 0H41.0871C18.3997 0 0 18.3997 0 41.0871V189.003C0 211.69 18.3997 230.09 41.0871 230.09H146.437C169.124 230.09 187.524 211.69 187.524 189.003L187.526 86.2131C187.526 84.6275 187.237 83.0833 187.066 81.5216L187.062 81.5193ZM39.3403 50.1277H82.4252C86.5094 50.1277 89.8212 53.4397 89.8212 57.5237C89.8212 61.6078 86.5092 64.9198 82.4252 64.9198H39.3403C35.2561 64.9198 31.9442 61.6078 31.9442 57.5237C31.9442 53.4397 35.2562 50.1277 39.3403 50.1277ZM148.171 179.964H39.3403C35.2561 179.964 31.9442 176.652 31.9442 172.568C31.9442 168.484 35.2562 165.172 39.3403 165.172H148.166C152.25 165.172 155.562 168.484 155.562 172.568C155.562 176.652 152.258 179.964 148.174 179.964H148.171ZM148.171 122.439H39.3403C35.2561 122.439 31.9442 119.127 31.9442 115.043C31.9442 110.959 35.2562 107.647 39.3403 107.647H148.166C152.25 107.647 155.562 110.959 155.562 115.043C155.562 119.127 152.258 122.439 148.174 122.439H148.171Z" fill="#E0E0E0"/>
<path d="M183.818 69.1925H134.76C125.72 69.1925 118.325 61.7964 118.325 52.7579L118.323 3.69788C122.761 5.6695 126.787 8.46312 130.32 11.9985L175.517 57.1956C178.97 60.6464 181.763 64.7543 183.817 69.192L183.818 69.1925Z" fill="#E0E0E0"/>
</svg>
