<?xml version="1.0" encoding="UTF-8"?>
<svg width="752pt" height="752pt" version="1.1" viewBox="0 0 752 752" xmlns="http://www.w3.org/2000/svg">
 <path d="m543.86 485.21-108.19-108.11 108.16-108.09c16.09-16.078 16.09-42.141 0-58.215-16.09-16.07-42.172-16.07-58.238 0l-108.16 108.09-108.16-108.09c-16.078-16.07-42.156-16.074-58.246 0.003907-16.082 16.074-16.082 42.137 0.003907 58.211l108.16 108.09-108.17 108.11c-16.082 16.066-16.082 42.137 0 58.203 8.043 8.0391 18.582 12.059 29.125 12.059s21.082-4.0195 29.125-12.059l108.17-108.11 108.18 108.11c8.0469 8.0391 18.582 12.059 29.121 12.059 10.539 0 21.086-4.0195 29.121-12.059 16.09-16.066 16.09-42.137 0-58.203z"/>
</svg>