<svg width="226" height="231" viewBox="0 0 226 231" fill="none" xmlns="http://www.w3.org/2000/svg">
<path d="M225.499 91.0848V189.061C225.499 211.71 207.117 230.09 184.47 230.09H155.42V147.867C155.42 138.429 147.79 130.799 138.353 130.799H87.1482C77.711 130.799 70.0808 138.43 70.0808 147.867L70.0786 230.09H41.0312C18.382 230.09 0.00216593 211.708 0.00216593 189.061L0 91.0848C0 77.6276 6.56501 65.072 17.5614 57.4413L89.283 7.3848C103.396 -2.4616 122.107 -2.4616 136.221 7.3848L207.942 57.4413C218.936 65.072 225.501 77.6254 225.501 91.0848H225.499Z" fill="#E0E0E0"/>
</svg>
