<svg preserveAspectRatio="none" width="934" height="934" viewBox="0 0 934 934" fill="none" xmlns="http://www.w3.org/2000/svg">
<path d="M549.273 496.814C549.273 509.189 539.242 519.215 526.872 519.215C514.502 519.215 504.47 509.189 504.47 496.814C504.47 484.444 514.501 474.418 526.872 474.418C539.241 474.418 549.273 484.444 549.273 496.814Z" fill="white"/>
<path d="M429.807 496.814C429.807 509.189 419.775 519.215 407.405 519.215C395.035 519.215 385.004 509.189 385.004 496.814C385.004 484.444 395.035 474.418 407.405 474.418C419.775 474.418 429.807 484.444 429.807 496.814Z" fill="white"/>
<path d="M489.54 407.214C489.54 419.584 479.509 429.615 467.139 429.615C454.768 429.615 444.737 419.584 444.737 407.214C444.737 394.844 454.768 384.812 467.139 384.812C479.509 384.812 489.54 394.844 489.54 407.214Z" fill="white"/>
<path d="M639.54 338.974L490.207 249.375C483.248 245.203 475.285 243 467.171 243C459.056 243 451.097 245.203 444.14 249.375L294.807 338.974C281.301 347.052 273.025 361.619 273 377.354V556.554C273.01 572.272 281.255 586.84 294.729 594.934L444.063 684.532C451.021 688.704 458.984 690.907 467.099 690.907C475.213 690.907 483.172 688.704 490.129 684.532L639.463 594.934C652.968 586.855 661.244 572.288 661.269 556.554V377.354C661.259 361.635 653.014 347.067 639.54 338.974V338.974ZM616.467 556.547L467.133 646.146L317.8 556.547V377.347L467.133 287.748L616.467 377.347V556.547Z" fill="white"/>
</svg>
