<svg width="201" height="201" viewBox="0 0 201 201" fill="none" xmlns="http://www.w3.org/2000/svg">
<path fill-rule="evenodd" clip-rule="evenodd" d="M79.9488 3.82307C68.8023 -1.01268 55.8461 4.10321 51.0103 15.2497L4.82307 121.712C-0.0126792 132.859 5.10321 145.815 16.2497 150.651L122.712 196.838C133.859 201.674 146.815 196.558 151.651 185.412L197.838 78.9488C202.674 67.8023 197.558 54.8461 186.411 50.0103L79.9488 3.82307ZM93.3749 62.8522C88.815 60.8739 83.5148 62.9668 81.5365 67.5267L63.8531 108.287C61.8748 112.847 63.9677 118.148 68.5276 120.126L109.288 137.809C113.848 139.787 119.148 137.695 121.127 133.135L138.81 92.374C140.788 87.8141 138.696 82.5139 134.136 80.5356L93.3749 62.8522Z" fill="#0C0E0E"/>
</svg>
