<svg width="174" height="174" viewBox="0 0 174 174" fill="none" xmlns="http://www.w3.org/2000/svg">
<rect width="174" height="174" rx="40" fill="#242424"/>
<path d="M35.7148 105.287L61.7596 105.229V106.795C61.7596 110.043 62.5524 112.248 64.1379 113.408C65.7234 114.529 69.0491 115.09 74.115 115.09H107.237C110.485 115.09 112.805 114.549 114.197 113.466C115.589 112.344 116.286 110.507 116.286 107.955C116.286 105.364 115.473 103.508 113.849 102.387C112.264 101.265 108.822 100.511 103.524 100.124L62.1077 99.1962C51.7439 98.8869 44.7251 96.9147 41.0514 93.2796C37.4164 89.6445 35.5988 83.0318 35.5988 73.4415C35.5988 68.4916 36.0822 64.4118 37.049 61.2021C38.0157 57.9925 39.5626 55.3242 41.6895 53.1973C44.2031 50.7997 47.4901 49.0982 51.5505 48.0927C55.611 47.0873 62.2237 46.5846 71.3887 46.5846H111.645C121.622 46.5846 128.796 48.4021 133.165 52.0371C137.574 55.6722 139.778 61.5695 139.778 69.7291C139.778 70.2704 139.759 70.8505 139.72 71.4692C139.72 72.088 139.662 73.0934 139.546 74.4856H114.139V74.1375C114.139 71.2759 113.405 69.1297 111.935 67.6988C110.504 66.268 108.339 65.5526 105.438 65.5526H75.0431C69.9772 65.5526 66.6322 66.0553 65.008 67.0608C63.3838 68.0662 62.5717 69.8257 62.5717 72.3393C62.5717 74.8143 63.3065 76.6125 64.776 77.7339C66.2455 78.8167 68.9524 79.5128 72.8969 79.8221L116.286 80.5182C126.185 80.7889 133.146 83.0125 137.168 87.1889C141.228 91.3654 143.258 98.5002 143.258 108.593C143.258 114.587 142.504 119.228 140.996 122.515C139.527 125.802 137.032 128.605 133.513 130.926C131.193 132.395 128.041 133.439 124.058 134.058C120.075 134.715 114.313 135.044 106.773 135.044H71.6207C57.1965 135.044 47.5481 133.439 42.6756 130.23C37.8031 126.981 35.3668 120.949 35.3668 112.132C35.3668 111.629 35.3861 110.797 35.4248 109.637C35.5021 108.439 35.5988 106.988 35.7148 105.287Z" fill="#E0E0E0"/>
</svg>
