<svg width="201" height="201" viewBox="0 0 201 201" fill="none" xmlns="http://www.w3.org/2000/svg">
<path d="M188 140.708V60.2917C187.995 53.2379 184.279 46.7004 178.206 43.0685L110.899 2.86078C107.763 0.988637 104.174 0 100.516 0C96.8589 0 93.2717 0.988637 90.1359 2.86078L22.8287 43.0685C16.7416 46.6936 13.0114 53.2307 13 60.2917V140.708C13.0047 147.762 16.7208 154.3 22.7938 157.931L90.101 198.139C93.2373 200.011 96.8263 201 100.484 201C104.141 201 107.728 200.011 110.864 198.139L178.171 157.931C184.258 154.306 187.989 147.769 188 140.708ZM100.499 20.0839L157.98 54.4274L100.499 88.7708L43.019 54.4274L100.499 20.0839ZM33.1922 140.708V72.0191L90.4027 106.197V174.886L33.1922 140.708ZM110.595 174.886V106.197L167.806 72.0191V140.708L110.595 174.886Z" fill="#0C0E0E"/>
</svg>
