<svg width="417" height="139" viewBox="0 0 417 139" fill="none" xmlns="http://www.w3.org/2000/svg">
<rect width="417" height="139" rx="40" fill="#242424"/>
<path d="M41.273 50.8184L52.3227 50.7938V51.4582C52.3227 52.8363 52.659 53.7715 53.3316 54.2637C54.0043 54.7395 55.4152 54.9773 57.5645 54.9773H71.6164C72.9945 54.9773 73.9789 54.7477 74.5695 54.2883C75.1602 53.8125 75.4555 53.0332 75.4555 51.9504C75.4555 50.8512 75.1109 50.0637 74.4219 49.5879C73.7492 49.1121 72.2891 48.7922 70.0414 48.6281L52.4703 48.2344C48.0734 48.1031 45.0957 47.2664 43.5371 45.7242C41.9949 44.182 41.2238 41.3766 41.2238 37.3078C41.2238 35.2078 41.4289 33.477 41.8391 32.1152C42.2492 30.7535 42.9055 29.6215 43.8078 28.7191C44.8742 27.702 46.2687 26.9801 47.9914 26.5535C49.7141 26.127 52.5195 25.9137 56.4078 25.9137H73.4867C77.7195 25.9137 80.7629 26.6848 82.6168 28.227C84.4871 29.7691 85.4223 32.2711 85.4223 35.7328C85.4223 35.9625 85.4141 36.2086 85.3977 36.4711C85.3977 36.7336 85.373 37.1602 85.3238 37.7508H74.5449V37.6031C74.5449 36.3891 74.2332 35.4785 73.6098 34.8715C73.0027 34.2645 72.084 33.9609 70.8535 33.9609H57.9582C55.809 33.9609 54.3898 34.1742 53.7008 34.6008C53.0117 35.0273 52.6672 35.7738 52.6672 36.8402C52.6672 37.8902 52.9789 38.6531 53.6023 39.1289C54.2258 39.5883 55.3742 39.8836 57.0477 40.0148L75.4555 40.3102C79.6555 40.425 82.6086 41.3684 84.3148 43.1402C86.0375 44.9121 86.8988 47.9391 86.8988 52.2211C86.8988 54.7641 86.5789 56.7328 85.9391 58.1273C85.3156 59.5219 84.2574 60.7113 82.7645 61.6957C81.7801 62.3191 80.443 62.7621 78.7531 63.0246C77.0633 63.3035 74.6187 63.443 71.4195 63.443H56.5062C50.3867 63.443 46.2934 62.7621 44.2262 61.4004C42.159 60.0223 41.1254 57.4629 41.1254 53.7223C41.1254 53.509 41.1336 53.1563 41.15 52.6641C41.1828 52.1555 41.2238 51.5402 41.273 50.8184ZM95.9305 43.8539H90.6887V37.0863H95.9305V30.8848H105.257V37.0863H119.826V43.8539H105.257V52.6641C105.257 54.0258 105.528 54.9855 106.07 55.5434C106.627 56.0848 107.562 56.3555 108.875 56.3555C110.368 56.3555 111.41 56.0766 112 55.5188C112.607 54.9609 112.911 53.993 112.911 52.6148C112.911 52.3359 112.886 51.8848 112.837 51.2613C112.821 51.1957 112.812 51.1465 112.812 51.1137H121.081C121.114 51.3926 121.139 51.6961 121.155 52.0242C121.171 52.3359 121.18 52.7871 121.18 53.3777C121.18 56.9051 120.154 59.448 118.104 61.0066C116.053 62.5652 112.698 63.3445 108.038 63.3445C103.576 63.3445 100.442 62.6801 98.6375 61.3512C96.8328 60.0059 95.9305 57.6844 95.9305 54.3867V43.8539ZM138.136 61.7449H134.641L123.321 37.0863H133.583L140.793 53.9191L148.25 37.0863H158.438L145.494 65.018C144.821 66.4617 144.14 67.6348 143.451 68.5371C142.779 69.4395 142.032 70.1285 141.212 70.6043C140.506 71.0145 139.661 71.3098 138.677 71.4902C137.709 71.6707 136.536 71.7609 135.158 71.7609C134.436 71.7609 133.722 71.7445 133.017 71.7117C132.311 71.6789 131.614 71.6297 130.925 71.5641V65.4363C131.302 65.4691 131.655 65.4937 131.983 65.5102C132.311 65.543 132.631 65.5594 132.943 65.5594C134.436 65.5594 135.593 65.2559 136.413 64.6488C137.25 64.0418 137.824 63.0738 138.136 61.7449ZM171.752 63H162.425V26.3566H171.752V63ZM188.88 33.9609H179.553V26.3566H188.88V33.9609ZM188.88 63H179.553V37.0863H188.88V63ZM195.008 54.8051L204.901 54.7805V54.8789C204.901 55.6828 205.303 56.2734 206.107 56.6508C206.911 57.0117 208.198 57.1922 209.97 57.1922H216.787C218.149 57.1922 219.109 57.0445 219.666 56.7492C220.224 56.4375 220.503 55.9207 220.503 55.1988C220.503 54.5426 220.2 54.0504 219.593 53.7223C219.002 53.3777 218.034 53.1645 216.689 53.0824L207.46 52.9102C202.801 52.8938 199.577 52.2949 197.789 51.1137C196 49.9324 195.106 47.9309 195.106 45.109C195.106 42.123 196.074 39.982 198.01 38.6859C199.946 37.3898 203.195 36.7418 207.755 36.7418H218.337C221.717 36.7418 224.219 37.3652 225.843 38.6121C227.468 39.859 228.296 41.7867 228.329 44.3953H219.002C218.772 43.9031 218.272 43.534 217.501 43.2879C216.73 43.0254 215.688 42.8941 214.375 42.8941H207.854C206.607 42.8941 205.729 43.0254 205.221 43.2879C204.729 43.534 204.482 43.9523 204.482 44.543C204.482 45.15 204.745 45.5848 205.27 45.8473C205.795 46.1098 206.993 46.2984 208.863 46.4133H220.257C223.587 46.4625 226.024 47.1516 227.566 48.4805C229.108 49.793 229.879 51.8438 229.879 54.6328C229.879 57.8156 229.018 60.0633 227.295 61.3758C225.589 62.6883 222.57 63.3445 218.239 63.3445H208.764C203.416 63.3445 199.798 62.7211 197.912 61.4742C196.025 60.2273 195.057 58.0043 195.008 54.8051ZM244.916 63H235.589V26.3566H244.916V41.2207C245.982 39.6293 247.344 38.5055 249.001 37.8492C250.674 37.1766 253.193 36.8402 256.556 36.8402C260.772 36.8402 263.93 37.6277 266.03 39.2027C268.147 40.7777 269.205 43.132 269.205 46.2656V63H259.903V49.957C259.903 47.6602 259.386 46.1508 258.352 45.4289C257.319 44.707 255.342 44.3461 252.421 44.3461C249.78 44.3461 247.869 44.8137 246.687 45.7488C245.506 46.6676 244.916 48.1688 244.916 50.2523V63ZM285.62 63H276.293V26.3566H285.62V41.2207C286.686 39.6293 288.048 38.5055 289.705 37.8492C291.378 37.1766 293.896 36.8402 297.26 36.8402C301.476 36.8402 304.634 37.6277 306.734 39.2027C308.851 40.7777 309.909 43.132 309.909 46.2656V63H300.607V49.957C300.607 47.6602 300.09 46.1508 299.056 45.4289C298.023 44.707 296.046 44.3461 293.125 44.3461C290.484 44.3461 288.573 44.8137 287.391 45.7488C286.21 46.6676 285.62 48.1688 285.62 50.2523V63ZM320.393 36.0773V26.3566H331.024V38.6121C331.024 41.4012 330.318 43.4109 328.907 44.6414C327.513 45.8555 325.224 46.4625 322.041 46.4625C321.533 46.4625 321 46.4543 320.442 46.4379C319.9 46.4051 319.343 46.3641 318.768 46.3148V40.6793H319.531C320.778 40.6793 321.68 40.4988 322.238 40.1379C322.812 39.7605 323.1 39.1863 323.1 38.4152V36.0773H320.393ZM340.252 54.8051L350.145 54.7805V54.8789C350.145 55.6828 350.547 56.2734 351.351 56.6508C352.155 57.0117 353.443 57.1922 355.215 57.1922H362.032C363.393 57.1922 364.353 57.0445 364.911 56.7492C365.469 56.4375 365.748 55.9207 365.748 55.1988C365.748 54.5426 365.444 54.0504 364.837 53.7223C364.246 53.3777 363.278 53.1645 361.933 53.0824L352.705 52.9102C348.045 52.8938 344.821 52.2949 343.033 51.1137C341.245 49.9324 340.351 47.9309 340.351 45.109C340.351 42.123 341.319 39.982 343.255 38.6859C345.191 37.3898 348.439 36.7418 353 36.7418H363.582C366.962 36.7418 369.464 37.3652 371.088 38.6121C372.712 39.859 373.541 41.7867 373.573 44.3953H364.246C364.017 43.9031 363.516 43.534 362.745 43.2879C361.974 43.0254 360.932 42.8941 359.62 42.8941H353.098C351.852 42.8941 350.974 43.0254 350.465 43.2879C349.973 43.534 349.727 43.9523 349.727 44.543C349.727 45.15 349.989 45.5848 350.514 45.8473C351.039 46.1098 352.237 46.2984 354.107 46.4133H365.502C368.832 46.4625 371.268 47.1516 372.811 48.4805C374.353 49.793 375.124 51.8438 375.124 54.6328C375.124 57.8156 374.262 60.0633 372.54 61.3758C370.834 62.6883 367.815 63.3445 363.484 63.3445H354.009C348.661 63.3445 345.043 62.7211 343.156 61.4742C341.27 60.2273 340.302 58.0043 340.252 54.8051Z" fill="#E0E0E0"/>
<path d="M63.7236 91.5671H50.2799V99.1317H63.7236C64.9409 99.1317 65.7903 98.8374 66.2719 98.2488C66.7668 97.6469 67.0143 96.5834 67.0143 95.0585C67.0143 93.8412 66.7534 92.9583 66.2317 92.4098C65.71 91.848 64.874 91.5671 63.7236 91.5671ZM64.0446 84.1229C66.0779 84.1229 67.6965 84.2232 68.9004 84.4239C70.1177 84.6112 71.1477 84.9255 71.9904 85.367C73.502 86.1562 74.5989 87.3334 75.2811 88.8984C75.9634 90.4501 76.3045 92.5971 76.3045 95.3394C76.3045 99.4327 75.6222 102.329 74.2578 104.028C72.8934 105.713 70.5859 106.556 67.3353 106.556H50.2799V114H41.1302V84.1229H64.0446ZM95.3463 114.361C91.855 114.361 89.3 114.207 87.6814 113.9C86.0628 113.579 84.7452 113.037 83.7286 112.274C82.5782 111.418 81.7488 110.301 81.2405 108.924C80.7322 107.532 80.478 105.693 80.478 103.406V95.2591C80.478 92.7576 80.7322 90.7779 81.2405 89.3198C81.7488 87.8617 82.5782 86.7046 83.7286 85.8485C84.7318 85.0994 86.0628 84.5644 87.7216 84.2433C89.3937 83.9223 91.9219 83.7617 95.3062 83.7617H106.041C109.439 83.7617 111.974 83.9223 113.646 84.2433C115.331 84.5644 116.669 85.0994 117.659 85.8485C118.769 86.6913 119.578 87.8417 120.087 89.2997C120.608 90.7578 120.869 92.6239 120.869 94.8979V103.225C120.869 105.526 120.608 107.399 120.087 108.843C119.578 110.275 118.769 111.418 117.659 112.274C116.656 113.037 115.331 113.579 113.686 113.9C112.041 114.207 109.492 114.361 106.041 114.361H95.3463ZM97.8143 106.897H103.613C106.837 106.897 108.977 106.496 110.034 105.693C111.091 104.877 111.619 103.372 111.619 101.178V96.9446C111.619 94.7508 111.091 93.2526 110.034 92.45C108.977 91.634 106.837 91.226 103.613 91.226H97.7742C94.4835 91.226 92.3232 91.634 91.2932 92.45C90.2765 93.266 89.7682 94.8177 89.7682 97.1051V101.259C89.7682 103.412 90.3033 104.89 91.3734 105.693C92.4569 106.496 94.6039 106.897 97.8143 106.897ZM150.185 91.5671H135.677V98.8708H150.185C151.402 98.8708 152.251 98.5899 152.733 98.0281C153.228 97.4529 153.475 96.4229 153.475 94.9381C153.475 93.7609 153.214 92.9048 152.693 92.3697C152.171 91.8346 151.335 91.5671 150.185 91.5671ZM150.526 84.1229C155.261 84.1229 158.485 84.8252 160.197 86.2298C161.909 87.6343 162.765 90.196 162.765 93.9147C162.765 96.4965 162.384 98.416 161.622 99.6735C160.859 100.931 159.582 101.774 157.789 102.202C159.368 102.576 160.552 103.238 161.341 104.188C162.13 105.138 162.525 106.369 162.525 107.88V114H153.395V109.445C153.395 108.268 153.114 107.459 152.552 107.017C152.004 106.576 150.914 106.355 149.282 106.355H135.677V114H126.528V84.1229H150.526ZM188.128 114H179.018V91.4467H166.518V84.1229H200.628V91.4467H188.128V114ZM237.247 91.4066H213.731V96.7439H235.883V103.967H213.731V114H204.621V84.1229H237.247V91.4066ZM254.985 114.361C251.494 114.361 248.939 114.207 247.32 113.9C245.702 113.579 244.384 113.037 243.367 112.274C242.217 111.418 241.388 110.301 240.879 108.924C240.371 107.532 240.117 105.693 240.117 103.406V95.2591C240.117 92.7576 240.371 90.7779 240.879 89.3198C241.388 87.8617 242.217 86.7046 243.367 85.8485C244.371 85.0994 245.702 84.5644 247.36 84.2433C249.032 83.9223 251.561 83.7617 254.945 83.7617H265.68C269.077 83.7617 271.612 83.9223 273.284 84.2433C274.97 84.5644 276.308 85.0994 277.298 85.8485C278.408 86.6913 279.217 87.8417 279.725 89.2997C280.247 90.7578 280.508 92.6239 280.508 94.8979V103.225C280.508 105.526 280.247 107.399 279.725 108.843C279.217 110.275 278.408 111.418 277.298 112.274C276.294 113.037 274.97 113.579 273.325 113.9C271.679 114.207 269.131 114.361 265.68 114.361H254.985ZM257.453 106.897H263.252C266.476 106.897 268.616 106.496 269.673 105.693C270.73 104.877 271.258 103.372 271.258 101.178V96.9446C271.258 94.7508 270.73 93.2526 269.673 92.45C268.616 91.634 266.476 91.226 263.252 91.226H257.413C254.122 91.226 251.962 91.634 250.932 92.45C249.915 93.266 249.407 94.8177 249.407 97.1051V101.259C249.407 103.412 249.942 104.89 251.012 105.693C252.096 106.496 254.243 106.897 257.453 106.897ZM295.737 106.777H315.622V114H286.608V84.1229H295.737V106.777ZM328.725 114H319.595V84.1229H328.725V114ZM349.412 114.361C345.92 114.361 343.366 114.207 341.747 113.9C340.128 113.579 338.811 113.037 337.794 112.274C336.644 111.418 335.814 110.301 335.306 108.924C334.798 107.532 334.544 105.693 334.544 103.406V95.2591C334.544 92.7576 334.798 90.7779 335.306 89.3198C335.814 87.8617 336.644 86.7046 337.794 85.8485C338.797 85.0994 340.128 84.5644 341.787 84.2433C343.459 83.9223 345.987 83.7617 349.372 83.7617H360.107C363.504 83.7617 366.039 83.9223 367.711 84.2433C369.397 84.5644 370.734 85.0994 371.724 85.8485C372.835 86.6913 373.644 87.8417 374.152 89.2997C374.674 90.7578 374.935 92.6239 374.935 94.8979V103.225C374.935 105.526 374.674 107.399 374.152 108.843C373.644 110.275 372.835 111.418 371.724 112.274C370.721 113.037 369.397 113.579 367.751 113.9C366.106 114.207 363.558 114.361 360.107 114.361H349.412ZM351.88 106.897H357.679C360.902 106.897 363.043 106.496 364.1 105.693C365.156 104.877 365.685 103.372 365.685 101.178V96.9446C365.685 94.7508 365.156 93.2526 364.1 92.45C363.043 91.634 360.902 91.226 357.679 91.226H351.84C348.549 91.226 346.389 91.634 345.359 92.45C344.342 93.266 343.834 94.8177 343.834 97.1051V101.259C343.834 103.412 344.369 104.89 345.439 105.693C346.522 106.496 348.669 106.897 351.88 106.897Z" fill="#E0E0E0"/>
</svg>
