<svg width="201" height="201" viewBox="0 0 201 201" fill="none" xmlns="http://www.w3.org/2000/svg">
<path d="M166.983 31H34.0143H34.0165C24.9936 31 16.3417 34.5789 9.9633 40.9523C3.58266 47.3237 0 55.9659 0 64.9789V136.023V136.021C0 145.034 3.58282 153.676 9.9633 160.048C16.3417 166.421 24.9936 170 34.0165 170H166.986H166.983C176.006 170 184.658 166.421 191.037 160.048C197.417 153.676 201 145.034 201 136.021V64.9767V64.9789C201 55.9659 197.417 47.3237 191.037 40.9523C184.658 34.5787 176.006 31 166.983 31V31ZM139.866 101.857L79.5657 132.746C79.0868 132.991 78.5152 132.974 78.0557 132.696C77.5941 132.42 77.3115 131.923 77.3072 131.386V69.6084C77.3115 69.0719 77.5941 68.5742 78.0557 68.2984C78.5152 68.0205 79.0868 68.0032 79.5657 68.2489L139.866 99.1377C140.381 99.4027 140.707 99.9328 140.707 100.512C140.707 101.092 140.381 101.622 139.866 101.887V101.857Z" fill="#0C0E0E"/>
</svg>
